<svg width="189" height="14" viewBox="0 0 189 14" fill="none" xmlns="http://www.w3.org/2000/svg">
<path d="M2.85392 10.1602C2.43915 10.1592 2.06291 10.0802 1.72522 9.92314C1.38754 9.76323 1.11963 9.53389 0.921481 9.23512C0.723344 8.9335 0.624789 8.56963 0.625815 8.14349C0.626719 7.7685 0.701315 7.4647 0.849603 7.2321C0.997898 6.99666 1.19579 6.81248 1.44327 6.67955C1.69075 6.54662 1.96371 6.44785 2.26216 6.38323C2.56346 6.31577 2.86615 6.26252 3.17022 6.22348C3.56807 6.17331 3.89061 6.13573 4.13783 6.11076C4.38789 6.08295 4.56982 6.03652 4.68362 5.97145C4.80025 5.90639 4.85876 5.79289 4.85916 5.63096L4.85924 5.59687C4.86025 5.17642 4.74598 4.84944 4.51643 4.61593C4.28972 4.38243 3.94483 4.26512 3.48176 4.264C3.00165 4.26284 2.62498 4.36705 2.35175 4.57662C2.07851 4.78619 1.88621 5.01016 1.77484 5.24853L0.821119 4.90532C0.992532 4.508 1.22055 4.19889 1.50517 3.97799C1.79265 3.75425 2.10552 3.59875 2.4438 3.5115C2.78493 3.42141 3.12026 3.37676 3.44981 3.37756C3.66004 3.37807 3.90145 3.40422 4.17405 3.45601C4.4495 3.50497 4.71489 3.60646 4.9702 3.76048C5.22835 3.91452 5.44228 4.14657 5.61199 4.45664C5.7817 4.7667 5.86592 5.18168 5.86467 5.70157L5.85428 10.0141L4.8486 10.0116L4.85073 9.12527L4.7996 9.12515C4.73107 9.26703 4.61707 9.41874 4.45759 9.58029C4.29811 9.74184 4.08613 9.87911 3.82165 9.99211C3.55718 10.1051 3.2346 10.1612 2.85392 10.1602ZM3.0095 9.2572C3.40723 9.25815 3.74264 9.18084 4.01575 9.02525C4.29169 8.86966 4.49956 8.66846 4.63936 8.42163C4.782 8.17482 4.85365 7.91505 4.85431 7.64232L4.85653 6.72187C4.81379 6.7729 4.71993 6.81955 4.57494 6.86181C4.4328 6.90124 4.26794 6.93636 4.08036 6.96716C3.89564 6.99512 3.71518 7.02025 3.53899 7.04256C3.36565 7.06203 3.22498 7.07873 3.11699 7.09268C2.85555 7.12614 2.6111 7.18095 2.38364 7.2571C2.15903 7.33043 1.97694 7.4422 1.83737 7.59244C1.70065 7.73983 1.63199 7.94137 1.63137 8.19705C1.63053 8.54648 1.75915 8.811 2.01724 8.9906C2.27818 9.16737 2.60894 9.25623 3.0095 9.2572ZM7.82622 10.0188L7.84725 1.29156L8.85293 1.29398L8.84516 4.51556L8.93039 4.51577C9.00453 4.40231 9.10715 4.25767 9.23826 4.08185C9.37221 3.9032 9.56293 3.74456 9.81043 3.60596C10.0608 3.46451 10.399 3.39431 10.8251 3.39533C11.3763 3.39666 11.8617 3.53561 12.2815 3.81219C12.7013 4.08878 13.0285 4.48019 13.2631 4.98644C13.4977 5.49269 13.6141 6.08956 13.6125 6.77706C13.6108 7.47024 13.4914 8.0708 13.2544 8.57876C13.0174 9.08387 12.6898 9.47513 12.2715 9.75253C11.8532 10.0271 11.3713 10.1637 10.8259 10.1624C10.4054 10.1614 10.0689 10.091 9.81644 9.95116C9.56395 9.8085 9.36973 9.64752 9.2338 9.46822C9.09787 9.28607 8.99312 9.13525 8.91955 9.01576L8.80023 9.01547L8.79781 10.0211L7.82622 10.0188ZM8.82274 6.74847C8.82155 7.24279 8.89294 7.67904 9.03691 8.05723C9.1809 8.43258 9.39183 8.72712 9.66973 8.94086C9.94763 9.15176 10.2883 9.25769 10.6917 9.25866C11.1121 9.25968 11.4633 9.14973 11.745 8.92881C12.0297 8.70507 12.2435 8.40445 12.3864 8.02695C12.5322 7.64662 12.6057 7.2235 12.6068 6.75759C12.6079 6.29736 12.5379 5.88242 12.3967 5.51276C12.2584 5.14027 12.0475 4.84572 11.7639 4.62913C11.4832 4.4097 11.1298 4.29948 10.7036 4.29845C10.2946 4.29746 9.95056 4.40033 9.67165 4.60704C9.39275 4.81092 9.18183 5.09734 9.0389 5.46632C8.89597 5.83245 8.82392 6.25984 8.82274 6.74847ZM16.1581 6.10137L16.1486 10.0389L15.143 10.0364L15.1587 3.491L16.1303 3.49334L16.1279 4.51607L16.2131 4.51627C16.3673 4.18426 16.6009 3.91777 16.9139 3.71682C17.2269 3.51303 17.6305 3.41173 18.1248 3.41292C18.568 3.41399 18.9556 3.50583 19.2875 3.68845C19.6195 3.86823 19.8773 4.14158 20.0611 4.5085C20.2449 4.87258 20.3361 5.33303 20.3348 5.88985L20.3248 10.0489L19.3191 10.0465L19.3289 5.9556C19.3302 5.4414 19.1976 5.04051 18.9313 4.75294C18.6649 4.46252 18.2988 4.31675 17.8329 4.31563C17.5119 4.31486 17.2248 4.38377 16.9716 4.52236C16.7213 4.66096 16.5233 4.86361 16.3778 5.13031C16.2323 5.397 16.159 5.72069 16.1581 6.10137ZM24.0882 10.2114C23.6735 10.2104 23.2972 10.1314 22.9595 9.97431C22.6219 9.8144 22.3539 9.58506 22.1558 9.28629C21.9577 8.98468 21.8591 8.6208 21.8601 8.19467C21.861 7.81967 21.9356 7.51587 22.0839 7.28327C22.2322 7.04783 22.4301 6.86365 22.6776 6.73072C22.9251 6.59779 23.198 6.49902 23.4965 6.4344C23.7978 6.36694 24.1005 6.31369 24.4045 6.27465C24.8024 6.22448 25.1249 6.1869 25.3721 6.16193C25.6222 6.13412 25.8041 6.08769 25.9179 6.02262C26.0346 5.95756 26.0931 5.84406 26.0935 5.68213L26.0936 5.64804C26.0946 5.22759 25.9803 4.90061 25.7507 4.6671C25.524 4.4336 25.1791 4.31629 24.7161 4.31517C24.236 4.31402 23.8593 4.41822 23.5861 4.62779C23.3128 4.83736 23.1205 5.06133 23.0092 5.2997L22.0554 4.95649C22.2268 4.55917 22.4549 4.25006 22.7395 4.02916C23.027 3.80542 23.3398 3.64992 23.6781 3.56267C24.0192 3.47258 24.3546 3.42794 24.6841 3.42873C24.8943 3.42924 25.1358 3.45539 25.4084 3.50718C25.6838 3.55614 25.9492 3.65763 26.2045 3.81166C26.4627 3.96569 26.6766 4.19774 26.8463 4.50781C27.016 4.81788 27.1002 5.23285 27.099 5.75274L27.0886 10.0652L26.0829 10.0628L26.085 9.17644L26.0339 9.17632C25.9654 9.3182 25.8514 9.46991 25.6919 9.63146C25.5324 9.79301 25.3204 9.93028 25.056 10.0433C24.7915 10.1563 24.4689 10.2123 24.0882 10.2114ZM24.2438 9.30837C24.6415 9.30933 24.977 9.23201 25.2501 9.07642C25.526 8.92083 25.7339 8.71963 25.8737 8.4728C26.0163 8.22599 26.088 7.96622 26.0886 7.69349L26.0908 6.77304C26.0481 6.82407 25.9542 6.87072 25.8093 6.91298C25.6671 6.95241 25.5023 6.98753 25.3147 7.01833C25.13 7.04629 24.9495 7.07142 24.7733 7.09373C24.6 7.1132 24.4593 7.1299 24.3513 7.14385C24.0899 7.17731 23.8454 7.23212 23.618 7.30827C23.3933 7.3816 23.2113 7.49337 23.0717 7.64361C22.935 7.791 22.8663 7.99254 22.8657 8.24822C22.8648 8.59766 22.9935 8.86217 23.2516 9.04177C23.5125 9.21854 23.8432 9.3074 24.2438 9.30837ZM29.9393 6.13458L29.9298 10.0721L28.9242 10.0696L28.9452 1.3424L29.9509 1.34482L29.9432 4.54936L30.0284 4.54957C30.1826 4.21187 30.4134 3.94396 30.7207 3.74583C31.0308 3.54488 31.443 3.44502 31.9572 3.44626C32.4032 3.44733 32.7936 3.53776 33.1284 3.71754C33.4632 3.89449 33.7225 4.16642 33.9063 4.53334C34.0929 4.89743 34.1855 5.36072 34.1842 5.92322L34.1742 10.0823L33.1685 10.0799L33.1783 5.98898C33.1796 5.46909 33.0456 5.06678 32.7764 4.78204C32.5101 4.49447 32.1397 4.35011 31.6652 4.34896C31.3357 4.34817 31.0401 4.41706 30.7784 4.55563C30.5195 4.69422 30.3145 4.89685 30.1633 5.16353C30.0149 5.43022 29.9403 5.7539 29.9393 6.13458ZM36.014 10.0867L36.0298 3.5413L37.0014 3.54364L36.9989 4.56636L37.0841 4.56657C37.2213 4.21747 37.4421 3.94669 37.7466 3.75424C38.051 3.55895 38.4163 3.46182 38.8425 3.46285C39.2743 3.46389 39.6334 3.56277 39.9199 3.75948C40.2092 3.95336 40.4344 4.22521 40.5955 4.57503L40.6636 4.57519C40.8321 4.23753 41.0841 3.96967 41.4198 3.77162C41.7556 3.57072 42.1578 3.47084 42.6265 3.47197C43.2118 3.47338 43.69 3.65777 44.0613 4.02514C44.4326 4.38967 44.6173 4.95688 44.6154 5.72677L44.6049 10.1074L43.5992 10.105L43.6098 5.72434C43.6109 5.24139 43.4796 4.8959 43.2159 4.68788C42.9522 4.47986 42.6414 4.37541 42.2835 4.37455C41.8232 4.37344 41.4664 4.51179 41.2129 4.78959C40.9593 5.06454 40.8321 5.41367 40.8311 5.83696L40.8208 10.0983L39.7981 10.0959L39.8089 5.61291C39.8098 5.24075 39.6898 4.94075 39.4488 4.71289C39.2079 4.4822 38.8971 4.36639 38.5164 4.36547C38.2551 4.36484 38.0106 4.43386 37.783 4.57251C37.5582 4.71118 37.3759 4.90392 37.2361 5.15074C37.0992 5.39473 37.0303 5.67724 37.0295 5.99826L37.0197 10.0892L36.014 10.0867ZM49.1876 10.2548C48.5569 10.2533 48.0133 10.1128 47.5565 9.8333C47.1027 9.55095 46.7528 9.15806 46.5068 8.65463C46.2637 8.14836 46.143 7.56 46.1446 6.88955C46.1462 6.21909 46.2698 5.62848 46.5153 5.11771C46.7637 4.6041 47.1085 4.20436 47.5495 3.91849C47.9934 3.62979 48.5108 3.48615 49.1017 3.48757C49.4426 3.48839 49.7791 3.54602 50.1112 3.66046C50.4433 3.7749 50.7454 3.96028 51.0175 4.21662C51.2896 4.47012 51.5062 4.80587 51.6671 5.22387C51.828 5.64187 51.9077 6.15627 51.9063 6.76707L51.9052 7.1932L46.8598 7.18104L46.8619 6.31173L50.8846 6.32142C50.8855 5.9521 50.8124 5.62238 50.6654 5.33225C50.5212 5.04213 50.3144 4.81294 50.0449 4.64468C49.7783 4.47642 49.4631 4.39185 49.0995 4.39098C48.6989 4.39001 48.3521 4.48861 48.059 4.68677C47.7688 4.88209 47.5451 5.13723 47.3881 5.4522C47.2311 5.76716 47.1522 6.10504 47.1513 6.46583L47.1499 7.04538C47.1487 7.53969 47.2329 7.95893 47.4026 8.30309C47.575 8.64442 47.8145 8.90494 48.1208 9.08466C48.4272 9.26153 48.7836 9.35046 49.1898 9.35144C49.454 9.35207 49.6927 9.31572 49.906 9.24237C50.1221 9.16618 50.3084 9.05299 50.465 8.9028C50.6217 8.74977 50.7429 8.55972 50.8286 8.33266L51.7996 8.60772C51.6965 8.93702 51.5239 9.22638 51.2818 9.4758C51.0398 9.72237 50.741 9.91484 50.3856 10.0532C50.0301 10.1887 49.6308 10.2559 49.1876 10.2548ZM53.4221 12.5832L53.4438 3.58326L54.4154 3.5856L54.4129 4.62537L54.5322 4.62566C54.6063 4.5122 54.7089 4.36756 54.84 4.19174C54.974 4.01309 55.1647 3.85446 55.4122 3.71585C55.6626 3.5744 56.0008 3.5042 56.4269 3.50522C56.9781 3.50655 57.4635 3.64551 57.8833 3.92209C58.3031 4.19867 58.6303 4.59008 58.8649 5.09633C59.0994 5.60258 59.2159 6.19945 59.2142 6.88695C59.2126 7.58013 59.0932 8.1807 58.8562 8.68865C58.6192 9.19376 58.2915 9.58502 57.8733 9.86242C57.455 10.137 56.9731 10.2736 56.4277 10.2723C56.0072 10.2713 55.6707 10.2009 55.4182 10.061C55.1657 9.9184 54.9715 9.75742 54.8356 9.57811C54.6997 9.39596 54.5949 9.24514 54.5213 9.12565L54.4361 9.12544L54.4278 12.5857L53.4221 12.5832ZM54.4245 6.85836C54.4233 7.35268 54.4947 7.78893 54.6387 8.16712C54.7827 8.54247 54.9936 8.83701 55.2715 9.05075C55.5494 9.26165 55.8901 9.36758 56.2935 9.36855C56.7139 9.36957 57.0651 9.25962 57.3468 9.03871C57.6315 8.81496 57.8453 8.51434 57.9882 8.13684C58.134 7.75651 58.2075 7.33339 58.2086 6.86748C58.2097 6.40725 58.1397 5.99231 57.9985 5.62265C57.8602 5.25016 57.6493 4.95562 57.3657 4.73902C57.085 4.5196 56.7316 4.40937 56.3054 4.40834C55.8963 4.40736 55.5523 4.51022 55.2734 4.71694C54.9945 4.92081 54.7836 5.20723 54.6407 5.57621C54.4978 5.94234 54.4257 6.36973 54.4245 6.85836ZM60.7405 10.1463L60.7563 3.60088L61.7278 3.60322L61.7255 4.59186L61.7936 4.59202C61.9137 4.26845 62.1303 4.00618 62.4433 3.80523C62.7563 3.60428 63.1088 3.50428 63.5008 3.50522C63.5747 3.5054 63.667 3.50704 63.7778 3.51015C63.8886 3.51326 63.9724 3.51772 64.0292 3.52354L64.0267 4.54627C63.9926 4.53766 63.9145 4.52469 63.7924 4.50735C63.6732 4.48718 63.5468 4.47693 63.4132 4.47661C63.0951 4.47584 62.8108 4.54192 62.5605 4.67484C62.313 4.80492 62.1166 4.98627 61.9711 5.21887C61.8285 5.44864 61.7569 5.71126 61.7561 6.00671L61.7462 10.1487L60.7405 10.1463ZM69.3367 7.49089L69.3461 3.62158L70.3518 3.62401L70.336 10.1694L69.3303 10.167L69.333 9.05907L69.2648 9.0589C69.1106 9.39092 68.8713 9.67301 68.5468 9.90519C68.2224 10.1345 67.8131 10.2486 67.3187 10.2474C66.9096 10.2464 66.5462 10.156 66.2285 9.9763C65.9107 9.79372 65.6614 9.52039 65.4805 9.15632C65.2995 8.7894 65.2097 8.32754 65.2111 7.77072L65.2211 3.61164L66.2268 3.61407L66.2169 7.70496C66.2158 8.18223 66.3484 8.56324 66.6147 8.84797C66.8839 9.13271 67.2273 9.27558 67.6449 9.27659C67.8949 9.27719 68.1494 9.21389 68.4082 9.08667C68.6699 8.95946 68.8891 8.76396 69.0658 8.50018C69.2455 8.23641 69.3358 7.89998 69.3367 7.49089ZM66.5703 2.52398C66.3913 2.52355 66.2324 2.45499 66.0935 2.31829C65.9575 2.17875 65.8897 2.0195 65.8901 1.84052C65.8906 1.6445 65.9592 1.48273 66.0958 1.35522C66.2354 1.22488 66.3946 1.15992 66.5736 1.16035C66.7696 1.16082 66.9314 1.22655 67.0589 1.35754C67.1893 1.4857 67.2542 1.64779 67.2538 1.84381C67.2533 2.02279 67.1876 2.18172 67.0566 2.32061C66.9284 2.45666 66.7663 2.52445 66.5703 2.52398ZM69.0248 2.5299C68.8459 2.52947 68.6869 2.4609 68.5481 2.3242C68.412 2.18467 68.3442 2.02541 68.3447 1.84644C68.3451 1.65042 68.4137 1.48865 68.5504 1.36114C68.6899 1.23079 68.8491 1.16583 69.0281 1.16626C69.2241 1.16674 69.3859 1.23247 69.5134 1.36346C69.6438 1.49161 69.7088 1.6537 69.7083 1.84972C69.7079 2.0287 69.6421 2.18763 69.5111 2.32652C69.383 2.46258 69.2209 2.53037 69.0248 2.5299ZM75.1085 3.63547L75.1064 4.48774L71.578 4.47924L71.5801 3.62697L75.1085 3.63547ZM72.6211 10.1749L72.6391 2.72611C72.64 2.35111 72.7288 2.03882 72.9055 1.78925C73.0823 1.53967 73.3114 1.35272 73.593 1.2284C73.8745 1.10408 74.1715 1.04229 74.484 1.04305C74.7312 1.04364 74.9329 1.06402 75.089 1.10417C75.2452 1.14431 75.3616 1.18153 75.4382 1.2158L75.1463 2.08442C75.0952 2.06725 75.0242 2.04577 74.9334 2.01999C74.8454 1.99421 74.7289 1.98114 74.5841 1.98079C74.2517 1.97999 74.0114 2.06322 73.8633 2.23048C73.718 2.39774 73.645 2.6433 73.6442 2.96717L73.6268 10.1774L72.6211 10.1749ZM76.3147 10.1838L76.3165 9.41681L80.0439 4.65305L80.0441 4.58487L76.4475 4.5762L76.4497 3.6387L81.3418 3.65049L81.3398 4.45162L77.7148 9.18154L77.7146 9.24972L81.4476 9.25872L81.4453 10.1962L76.3147 10.1838ZM85.5508 10.3425C84.9201 10.341 84.3764 10.2004 83.9197 9.92093C83.4658 9.63858 83.1159 9.24569 82.87 8.74226C82.6269 8.23599 82.5062 7.64763 82.5078 6.97717C82.5094 6.30672 82.633 5.71611 82.8785 5.20533C83.1269 4.69173 83.4716 4.29199 83.9127 4.00612C84.3565 3.71741 84.8739 3.57377 85.4648 3.5752C85.8057 3.57602 86.1423 3.63365 86.4744 3.74809C86.8065 3.86252 87.1086 4.04791 87.3807 4.30425C87.6528 4.55775 87.8693 4.8935 88.0303 5.3115C88.1912 5.7295 88.2709 6.2439 88.2694 6.85469L88.2684 7.28083L83.223 7.26867L83.2251 6.39935L87.2478 6.40905C87.2487 6.03973 87.1756 5.71001 87.0286 5.41988C86.8844 5.12976 86.6776 4.90057 86.4081 4.7323C86.1414 4.56405 85.8263 4.47948 85.4627 4.4786C85.0621 4.47764 84.7153 4.57624 84.4222 4.77439C84.1319 4.96972 83.9083 5.22486 83.7513 5.53982C83.5943 5.85479 83.5153 6.19267 83.5145 6.55346L83.5131 7.13301C83.5119 7.62732 83.5961 8.04656 83.7657 8.39072C83.9382 8.73205 84.1776 8.99257 84.484 9.17228C84.7904 9.34916 85.1467 9.43809 85.553 9.43906C85.8172 9.4397 86.0559 9.40334 86.2692 9.32999C86.4852 9.25381 86.6716 9.14062 86.8282 8.99043C86.9848 8.8374 87.106 8.64735 87.1918 8.42028L88.1627 8.69535C88.0597 9.02465 87.8871 9.31401 87.645 9.56342C87.4029 9.81 87.1042 10.0025 86.7487 10.1408C86.3933 10.2763 85.994 10.3435 85.5508 10.3425ZM93.9226 7.55014L93.9319 3.68083L94.9376 3.68325L94.9218 10.2287L93.9162 10.2263L93.9188 9.11831L93.8507 9.11815C93.6964 9.45017 93.4571 9.73226 93.1327 9.96443C92.8083 10.1938 92.3989 10.3078 91.9046 10.3066C91.4955 10.3057 91.1321 10.2153 90.8143 10.0356C90.4966 9.85297 90.2473 9.57964 90.0663 9.21556C89.8854 8.84865 89.7956 8.38679 89.7969 7.82997L89.807 3.67089L90.8126 3.67331L90.8028 7.76421C90.8016 8.24148 90.9342 8.62248 91.2006 8.90722C91.4698 9.19196 91.8132 9.33483 92.2308 9.33584C92.4808 9.33644 92.7352 9.27313 92.9941 9.14592C93.2557 9.0187 93.4749 8.82321 93.6517 8.55943C93.8313 8.29566 93.9216 7.95923 93.9226 7.55014ZM99.3996 12.8304C98.9138 12.8292 98.4964 12.7657 98.1472 12.6399C97.7981 12.5169 97.5073 12.3542 97.2748 12.152C97.0452 11.9526 96.8625 11.7391 96.7266 11.5115L97.5291 10.9509C97.6198 11.0704 97.7345 11.2071 97.8733 11.3608C98.0121 11.5174 98.2022 11.6528 98.4434 11.767C98.6874 11.8841 99.0069 11.9431 99.4017 11.944C99.9302 11.9453 100.367 11.8185 100.711 11.5637C101.055 11.3088 101.228 10.9087 101.229 10.3632L101.233 9.03367L101.147 9.03346C101.073 9.1526 100.968 9.30007 100.831 9.47588C100.697 9.64885 100.503 9.80322 100.25 9.93897C100 10.0719 99.6618 10.1378 99.2356 10.1368C98.7072 10.1355 98.2331 10.0094 97.8133 9.75838C97.3962 9.50738 97.0662 9.14294 96.823 8.66508C96.5827 8.18723 96.4633 7.6074 96.465 6.92558C96.4666 6.25513 96.5859 5.67161 96.8229 5.17502C97.0599 4.67559 97.3889 4.29001 97.81 4.0183C98.2312 3.74375 98.7173 3.60713 99.2684 3.60846C99.6946 3.60949 100.032 3.68133 100.282 3.82397C100.535 3.96379 100.727 4.12334 100.861 4.30264C100.996 4.47911 101.101 4.62425 101.175 4.73806L101.277 4.73831L101.28 3.69854L102.251 3.70088L102.235 10.4338C102.234 10.9963 102.105 11.4534 101.848 11.805C101.594 12.1595 101.253 12.4187 100.824 12.5824C100.397 12.749 99.9223 12.8317 99.3996 12.8304ZM99.3742 9.23373C99.7776 9.23471 100.119 9.1432 100.398 8.95921C100.676 8.77522 100.889 8.51011 101.034 8.16387C101.18 7.81763 101.254 7.40303 101.255 6.92008C101.256 6.44849 101.186 6.03212 101.045 5.67099C100.904 5.30985 100.694 5.02667 100.416 4.82146C100.138 4.61624 99.7947 4.51314 99.3856 4.51216C98.9594 4.51113 98.6041 4.61823 98.3194 4.83345C98.0377 5.04868 97.8253 5.33794 97.6824 5.70124C97.5423 6.06454 97.4718 6.46778 97.4707 6.91096C97.4696 7.3655 97.5396 7.76766 97.6808 8.11743C97.8249 8.46437 98.0373 8.73761 98.3181 8.93715C98.6017 9.13386 98.9537 9.23272 99.3742 9.23373ZM105.091 6.31568L105.082 10.2532L104.076 10.2507L104.092 3.70531L105.064 3.70766L105.061 4.73038L105.146 4.73059C105.301 4.39857 105.534 4.13209 105.847 3.93114C106.16 3.72734 106.564 3.62604 107.058 3.62723C107.501 3.6283 107.889 3.72015 108.221 3.90276C108.553 4.08254 108.811 4.35589 108.994 4.72281C109.178 5.08689 109.269 5.54734 109.268 6.10416L109.258 10.2632L108.252 10.2608L108.262 6.16992C108.264 5.65571 108.131 5.25482 107.865 4.96725C107.598 4.67683 107.232 4.53107 106.766 4.52994C106.445 4.52917 106.158 4.59808 105.905 4.73667C105.655 4.87528 105.457 5.07792 105.311 5.34462C105.166 5.61132 105.092 5.935 105.091 6.31568ZM111.096 10.2677L111.112 3.72223L112.117 3.72465L112.101 10.2701L111.096 10.2677ZM111.626 2.63256C111.43 2.63208 111.261 2.56492 111.119 2.43105C110.98 2.29719 110.911 2.13651 110.911 1.94901C110.912 1.76152 110.982 1.60117 111.121 1.46798C111.264 1.33481 111.433 1.26845 111.629 1.26892C111.825 1.2694 111.992 1.33656 112.131 1.47042C112.273 1.60428 112.344 1.76497 112.343 1.95247C112.343 2.13996 112.271 2.3003 112.129 2.43348C111.989 2.56667 111.822 2.63303 111.626 2.63256ZM118.592 5.20617L117.688 5.45967C117.632 5.30897 117.548 5.16246 117.438 5.02015C117.33 4.875 117.183 4.75533 116.995 4.66113C116.808 4.56693 116.568 4.51947 116.276 4.51877C115.875 4.5178 115.541 4.60933 115.273 4.79334C115.009 4.97452 114.876 5.20574 114.875 5.48699C114.875 5.73699 114.965 5.93465 115.147 6.07997C115.328 6.2253 115.612 6.34672 115.998 6.44424L116.969 6.68522C117.554 6.82867 117.99 7.04705 118.276 7.34036C118.562 7.63082 118.705 8.00474 118.704 8.46213C118.703 8.83713 118.594 9.17209 118.377 9.46703C118.163 9.76197 117.865 9.9942 117.481 10.1637C117.097 10.3333 116.651 10.4174 116.142 10.4162C115.474 10.4146 114.922 10.2684 114.485 9.97754C114.049 9.68671 113.773 9.26275 113.657 8.70565L114.613 8.46932C114.703 8.82181 114.874 9.08643 115.126 9.26317C115.382 9.43992 115.715 9.52879 116.127 9.52979C116.596 9.53092 116.968 9.43238 117.244 9.23418C117.523 9.03315 117.663 8.79201 117.664 8.51076C117.664 8.28349 117.585 8.09296 117.426 7.93916C117.268 7.78253 117.024 7.66547 116.694 7.58797L115.604 7.32966C115.005 7.18617 114.565 6.96494 114.285 6.66596C114.007 6.36416 113.869 5.9874 113.87 5.5357C113.871 5.16638 113.975 4.83993 114.183 4.55634C114.394 4.27275 114.68 4.05043 115.041 3.88937C115.405 3.72832 115.817 3.64834 116.278 3.64945C116.925 3.65101 117.434 3.79428 117.802 4.07926C118.174 4.36425 118.437 4.73989 118.592 5.20617ZM126.519 10.4242C125.957 10.4228 125.456 10.325 125.016 10.1308C124.579 9.93652 124.232 9.66722 123.974 9.32284C123.719 8.97564 123.581 8.57331 123.559 8.11587L124.633 8.11846C124.655 8.39977 124.751 8.6429 124.921 8.84785C125.091 9.04997 125.314 9.20675 125.589 9.31821C125.864 9.42967 126.169 9.48581 126.505 9.48661C126.88 9.48752 127.212 9.42298 127.502 9.29299C127.792 9.16301 128.02 8.98174 128.185 8.74918C128.351 8.51663 128.434 8.24694 128.435 7.94012C128.435 7.6191 128.356 7.33624 128.198 7.09154C128.039 6.844 127.807 6.65025 127.501 6.51031C127.194 6.37037 126.819 6.29986 126.376 6.29879L125.677 6.29711L125.679 5.35961L126.378 5.3613C126.725 5.36213 127.029 5.30036 127.291 5.17599C127.555 5.05163 127.762 4.87599 127.91 4.64908C128.061 4.42217 128.137 4.1553 128.138 3.84849C128.138 3.55303 128.074 3.29577 127.943 3.07671C127.813 2.85765 127.629 2.68675 127.391 2.56401C127.155 2.44129 126.877 2.37954 126.556 2.37876C126.255 2.37804 125.971 2.43275 125.703 2.5429C125.439 2.65022 125.222 2.80737 125.054 3.01435C124.886 3.21849 124.795 3.46543 124.78 3.75517L123.757 3.7527C123.775 3.29536 123.914 2.89512 124.173 2.552C124.433 2.20603 124.771 1.93696 125.19 1.74479C125.61 1.55262 126.072 1.45714 126.575 1.45835C127.115 1.45965 127.578 1.57014 127.964 1.78982C128.349 2.00666 128.646 2.29289 128.852 2.6485C129.059 3.00411 129.161 3.38788 129.16 3.79982C129.159 4.29129 129.029 4.71001 128.77 5.05598C128.513 5.40195 128.165 5.64117 127.724 5.77363L127.724 5.84181C128.275 5.93405 128.704 6.16946 129.013 6.54805C129.322 6.92379 129.476 7.38865 129.474 7.94263C129.473 8.41706 129.343 8.84288 129.083 9.2201C128.827 9.59448 128.477 9.88909 128.033 10.1039C127.589 10.3188 127.085 10.4255 126.519 10.4242ZM131.692 10.3855C131.482 10.385 131.301 10.3093 131.151 10.1583C131.001 10.0074 130.926 9.82681 130.927 9.61659C130.927 9.40636 131.003 9.22615 131.154 9.07594C131.305 8.92574 131.485 8.85089 131.696 8.85139C131.906 8.8519 132.086 8.92762 132.236 9.07855C132.386 9.22948 132.461 9.41006 132.461 9.62028C132.46 9.75949 132.425 9.88724 132.353 10.0035C132.285 10.1199 132.192 10.2134 132.076 10.2841C131.962 10.352 131.834 10.3858 131.692 10.3855ZM136.293 1.60109L136.272 10.3283L135.215 10.3258L135.233 2.70649L135.182 2.70637L133.048 4.116L133.051 3.04214L135.236 1.59854L136.293 1.60109ZM142.542 5.9798C142.545 4.90594 142.686 3.91906 142.967 3.01916C143.25 2.11643 143.653 1.28644 144.175 0.529168L145.061 0.531304C144.856 0.812061 144.663 1.15819 144.483 1.56969C144.306 1.97835 144.15 2.42826 144.016 2.91942C143.881 3.40773 143.775 3.91316 143.697 4.4357C143.621 4.95825 143.583 5.47378 143.582 5.9823C143.58 6.65844 143.644 7.34467 143.773 8.04101C143.902 8.73734 144.077 9.38407 144.297 9.98119C144.517 10.5783 144.763 11.0647 145.035 11.4404L144.148 11.4382C143.63 10.6785 143.232 9.84795 142.953 8.9467C142.677 8.04263 142.54 7.05366 142.542 5.9798ZM149.351 10.3599L146.658 10.3534L146.679 1.62612L149.491 1.63289C150.338 1.63493 151.062 1.81139 151.663 2.16228C152.265 2.51032 152.725 3.01001 153.045 3.66135C153.364 4.30985 153.523 5.0858 153.521 5.98921C153.518 6.89829 153.355 7.68057 153.029 8.33604C152.704 8.98867 152.231 9.49037 151.611 9.84115C150.991 10.1891 150.237 10.362 149.351 10.3599ZM147.717 9.41841L149.285 9.42219C150.007 9.42393 150.605 9.28617 151.08 9.0089C151.555 8.73164 151.91 8.33618 152.144 7.82254C152.378 7.3089 152.496 6.69697 152.498 5.98674C152.5 5.2822 152.386 4.67539 152.157 4.16631C151.928 3.6544 151.585 3.26152 151.129 2.98769C150.672 2.71102 150.103 2.57187 149.421 2.57023L147.733 2.56616L147.717 9.41841ZM155.283 10.3741L155.304 1.6469L160.571 1.65959L160.569 2.59709L156.358 2.58694L156.351 5.5358L160.289 5.54529L160.287 6.48278L156.349 6.4733L156.342 9.4392L160.62 9.44951L160.618 10.387L155.283 10.3741ZM164.879 8.86318L164.892 3.23819L165.847 3.24049L165.833 8.86548L164.879 8.86318ZM162.549 6.52233L162.552 5.56779L168.177 5.58134L168.174 6.53588L162.549 6.52233ZM170.365 10.4105L170.386 1.68324L175.653 1.69594L175.651 2.63343L171.44 2.62329L171.433 5.57214L175.371 5.58163L175.369 6.51913L171.431 6.50964L171.424 9.47554L175.702 9.48585L175.7 10.4233L170.365 10.4105ZM184.478 1.7172L184.457 10.4445L183.434 10.442L178.695 3.57827L178.61 3.57807L178.593 10.4303L177.537 10.4278L177.558 1.70053L178.58 1.70299L183.337 8.58379L183.422 8.584L183.438 1.7147L184.478 1.7172ZM188.594 6.09077C188.591 7.16463 188.448 8.15293 188.165 9.05565C187.884 9.95555 187.483 10.7841 186.961 11.5414L186.075 11.5393C186.28 11.2585 186.471 10.9124 186.648 10.5009C186.828 10.0922 186.986 9.64372 187.12 9.15541C187.255 8.66426 187.36 8.15741 187.435 7.63486C187.513 7.10948 187.553 6.59395 187.554 6.08826C187.556 5.41213 187.492 4.7259 187.363 4.02956C187.234 3.33322 187.059 2.68649 186.839 2.08937C186.619 1.49225 186.373 1.00586 186.101 0.630202L186.987 0.632338C187.506 1.39211 187.903 2.22404 188.179 3.12811C188.458 4.02936 188.596 5.01691 188.594 6.09077Z" fill="#3E4E58"/>
</svg>
